<?xml version="1.0" encoding="UTF-8" standalone="no"?>
<svg
   viewBox="0 0 131072 131072"
   version="1.1"
   id="svg1"
   sodipodi:docname="paper-plane-solid.svg"
   width="131072"
   height="131072"
   xmlns:inkscape="http://www.inkscape.org/namespaces/inkscape"
   xmlns:sodipodi="http://sodipodi.sourceforge.net/DTD/sodipodi-0.dtd"
   xmlns="http://www.w3.org/2000/svg"
   xmlns:svg="http://www.w3.org/2000/svg">
  <defs
     id="defs1" />
  <sodipodi:namedview
     id="namedview1"
     pagecolor="#ffffff"
     bordercolor="#999999"
     borderopacity="1"
     inkscape:showpageshadow="0"
     inkscape:pageopacity="0"
     inkscape:pagecheckerboard="0"
     inkscape:deskcolor="#d1d1d1" />
  <!--! Font Awesome Pro 6.4.2 by @fontawesome - https://fontawesome.com License - https://fontawesome.com/license (Commercial License) Copyright 2023 Fonticons, Inc. -->
  <path
     d="m -65158.941,-65405.199 c 5.05,3.5 7.7,9.548 6.75,15.597 l -32,207.957 c -0.75,4.849 -3.7,9.098 -8.001,11.498 -4.3,2.399 -9.45,2.699 -14,0.799 l -59.801,-24.844 -34.25,37.042 c -4.45,4.849 -11.45,6.449 -17.6,4.049 -6.151,-2.399 -10.151,-8.348 -10.151,-14.947 v -41.791 c 0,-2 0.75,-3.899 2.1,-5.349 l 83.802,-91.431 c 2.9,-3.149 2.8,-7.998 -0.2,-10.998 -3,-2.999 -7.85,-3.199 -11,-0.35 l -101.702,90.332 -44.151,-22.096 c -5.3,-2.649 -8.7,-7.948 -8.85,-13.847 -0.15,-5.899 2.95,-11.398 8.05,-14.347 l 224.004,-127.974 c 5.35,-3.049 11.95,-2.749 17,0.7 z"
     id="path1"
     style="stroke-width:0.499954" />
</svg>
